<svg width="29" height="24" viewBox="0 0 29 24" fill="none" xmlns="http://www.w3.org/2000/svg">
<path d="M20.13 13.288C20.0182 13.195 19.8855 13.1213 19.7393 13.071C19.5932 13.0206 19.4365 12.9948 19.2783 12.9948C19.1201 12.9948 18.9635 13.0206 18.8174 13.071C18.6712 13.1213 18.5385 13.195 18.4267 13.288L16.5067 14.882C15.6165 14.662 13.9554 14.162 12.9026 13.288C11.8498 12.414 11.2475 11.035 10.9825 10.296L12.9026 8.70195C13.0146 8.60916 13.1034 8.49896 13.164 8.37765C13.2246 8.25633 13.2558 8.12629 13.2558 7.99495C13.2558 7.86362 13.2246 7.73357 13.164 7.61226C13.1034 7.49094 13.0146 7.38074 12.9026 7.28795L8.08436 3.28795C7.97259 3.19501 7.83984 3.12127 7.69371 3.07096C7.54758 3.02065 7.39093 2.99475 7.23273 2.99475C7.07453 2.99475 6.91789 3.02065 6.77176 3.07096C6.62562 3.12127 6.49288 3.19501 6.38111 3.28795L3.11434 5.99995C2.6566 6.37995 2.39883 6.90195 2.40846 7.43495C2.43617 8.85895 2.89029 13.805 7.58567 17.703C12.281 21.601 18.2388 21.977 19.9541 22H19.9878C20.6238 22 21.2249 21.792 21.6802 21.414L24.947 18.702C25.059 18.6092 25.1478 18.499 25.2084 18.3776C25.269 18.2563 25.3002 18.1263 25.3002 17.995C25.3002 17.8636 25.269 17.7336 25.2084 17.6123C25.1478 17.4909 25.059 17.3807 24.947 17.288L20.13 13.288ZM19.977 20C18.4737 19.979 13.3302 19.644 9.28892 16.288C5.23436 12.922 4.84168 8.63695 4.81759 7.41395L7.23273 5.40895L10.3477 7.99495L8.79023 9.28795C8.64865 9.4054 8.54455 9.55029 8.48735 9.70952C8.43014 9.86875 8.42163 10.0373 8.46259 10.2C8.4915 10.315 9.19858 13.042 11.1981 14.702C13.1977 16.362 16.4826 16.949 16.6211 16.973C16.8169 17.0077 17.0201 17.0011 17.212 16.9538C17.4039 16.9064 17.5785 16.8198 17.7196 16.702L19.2771 15.409L22.3921 17.995L19.977 20Z" fill="white"/>
<path d="M20.2314 5.791L14.8145 10.288L16.5177 11.702L21.9346 7.205L25.3026 10V2.995H16.8646L20.2314 5.791Z" fill="white"/>
</svg>
