<svg width="71" height="71" viewBox="0 0 71 71" fill="none" xmlns="http://www.w3.org/2000/svg">
<rect width="71" height="71" rx="17" fill="#09A6FF" fill-opacity="0.36"/>
<path d="M54.0292 39.9745C54.0292 38.1497 53.1955 36.5074 51.8691 35.4125V35.0474C51.8691 31.5073 50.429 27.8577 47.9282 25.0111C45.2756 21.9819 41.8272 20.3032 38.2651 20.3032H35.802C27.9958 20.3032 22.1979 28.0768 22.1979 35.0476V35.376C20.8337 36.5073 20 38.1496 20 39.9744C20 42.6021 21.7433 44.9014 24.32 45.7044C24.9264 46.9451 26.2525 47.7847 27.7685 47.7847C29.8527 47.7847 31.5579 46.1425 31.5579 44.1352L31.5577 36.0331C31.5577 34.0257 29.8525 32.3835 27.7682 32.3835C26.3662 32.3835 25.1156 33.1133 24.4714 34.2447C24.206 34.3178 23.9409 34.4272 23.6755 34.5367C23.9409 28.4419 29.1324 21.6902 35.8018 21.6902H38.2648C44.8964 21.6902 50.1258 28.4419 50.429 34.5002C50.1258 34.3543 49.7848 34.2446 49.4057 34.1352C48.7238 33.0769 47.511 32.3468 46.1468 32.3468C44.0625 32.3468 42.3573 33.989 42.3573 35.9964V44.135C42.3573 45.9598 43.7215 47.4562 45.5404 47.7481V49.5729C45.5404 50.9963 44.3277 52.1642 42.8498 52.1642H40.1591C39.7423 51.3249 38.5675 50.7409 37.1275 50.7409C35.3464 50.7409 33.9444 51.6897 33.9444 52.8577C33.9444 54.062 35.3464 54.9744 37.1275 54.9744C38.5675 54.9744 39.7423 54.3904 40.1591 53.5511H42.8498C45.1236 53.5511 46.9802 51.7627 46.9802 49.5731V47.7119C48.1171 47.4563 49.0645 46.7264 49.5569 45.7776C52.1722 45.0111 54.0292 42.6753 54.0292 39.9746L54.0292 39.9745ZM27.7683 33.7335C29.0566 33.7335 30.1177 34.7554 30.1177 35.9962V44.1348C30.1177 45.3756 29.0566 46.3975 27.7683 46.3975C26.4799 46.3975 25.4189 45.3756 25.4189 44.1348V36.0327C25.3808 34.7555 26.4421 33.7334 27.7683 33.7334V33.7335ZM23.941 36.0329V44.0619C22.4253 43.259 21.4399 41.6898 21.4399 39.9745C21.4399 38.2227 22.4251 36.69 23.941 35.887V36.0329V36.0329ZM37.0904 53.5874C35.9916 53.5874 35.3471 53.1128 35.3471 52.8575C35.3471 52.6019 36.0291 52.1277 37.0904 52.1277C38.1892 52.1277 38.8337 52.6022 38.8337 52.8575C38.8715 53.1131 38.1892 53.5874 37.0904 53.5874ZM46.1472 46.4342C44.8589 46.4342 43.7978 45.4123 43.7978 44.1715L43.7975 36.0329C43.7975 34.7921 44.8586 33.7702 46.1469 33.7702C47.4353 33.7702 48.4963 34.7921 48.4963 36.0329V44.1715C48.4966 45.4125 47.4356 46.4344 46.1472 46.4344L46.1472 46.4342ZM49.9367 44.1349V36.0328V35.8139C51.5282 36.5804 52.5892 38.186 52.5892 39.9744C52.5892 41.7628 51.5282 43.3686 49.9367 44.1349V44.1349Z" fill="#2E87F0"/>
</svg>
