<svg width="71" height="71" viewBox="0 0 71 71" fill="none" xmlns="http://www.w3.org/2000/svg">
<rect width="71" height="71" rx="17" fill="#FF6109" fill-opacity="0.49"/>
<path d="M45.2654 36.0887H25.7703C25.5177 36.0887 25.2651 35.9478 25.1136 35.713C24.9621 35.4782 24.9621 35.2434 25.1136 35.009L34.8612 19.3288C35.0127 19.094 35.2653 19 35.5179 19C35.7705 19 36.0231 19.1408 36.1745 19.3288L45.9221 35.009C46.0736 35.2438 46.0736 35.4786 45.9221 35.713C45.771 35.9478 45.5184 36.0887 45.2658 36.0887H45.2654ZM27.0834 34.6802H43.9523L35.5179 21.1126L27.0834 34.6802Z" fill="#FF6108"/>
<path d="M51.9596 52.5391H36.7574C36.3533 52.5391 36 52.2103 36 51.835V37.7041C36 37.3285 36.3537 37 36.7574 37H51.9596C52.3637 37 52.717 37.3288 52.717 37.7041V51.835C52.7174 52.211 52.364 52.5394 51.96 52.5394L51.9596 52.5391ZM37.515 51.1306H51.202L51.2017 38.408H37.5147L37.515 51.1306Z" fill="#FF6108"/>
<path d="M25.3332 53.4921C20.7371 53.4921 17 50.0179 17 45.746C17 41.4738 20.7375 38 25.3332 38C29.9293 38 33.6665 41.4741 33.6665 45.746C33.6668 50.0179 29.9292 53.4921 25.3332 53.4921ZM25.3332 39.4081C21.5957 39.4081 18.5148 42.2718 18.5148 45.746C18.5148 49.2202 21.5956 52.084 25.3332 52.084C29.0708 52.084 32.1517 49.2203 32.1517 45.746C32.1517 42.2719 29.0708 39.4081 25.3332 39.4081Z" fill="#FF6108"/>
</svg>
