<svg width="25" height="16" viewBox="0 0 25 16" fill="none" xmlns="http://www.w3.org/2000/svg">
<path d="M21.6821 14H19.273V5.25L12.0456 9L4.81825 5.25V14H2.40912V2H3.8546L12.0456 6.25L20.2366 2H21.6821V14ZM21.6821 0H2.40912C1.07206 0 0 0.89 0 2V14C0 14.5304 0.253817 15.0391 0.705616 15.4142C1.15741 15.7893 1.77018 16 2.40912 16H21.6821C22.321 16 22.9338 15.7893 23.3856 15.4142C23.8374 15.0391 24.0912 14.5304 24.0912 14V2C24.0912 1.46957 23.8374 0.960859 23.3856 0.585786C22.9338 0.210714 22.321 0 21.6821 0Z" fill="white"/>
</svg>
