<svg width="71" height="71" viewBox="0 0 71 71" fill="none" xmlns="http://www.w3.org/2000/svg">
<rect width="71" height="71" rx="17" fill="#0CC029" fill-opacity="0.3"/>
<path d="M56.333 26.6958H46.1141C45.9037 26.3203 45.6345 25.994 45.3216 25.7341L46.8832 16.3861C46.8992 16.2911 46.8778 16.1928 46.825 16.118C46.7722 16.0433 46.6936 16 46.6106 16H43.8327C43.6997 16 43.5855 16.1098 43.5601 16.2619L42.0024 25.5715C41.5976 25.8513 41.253 26.2371 40.9959 26.6959L31.055 26.6956C30.1361 26.6956 29.3883 27.568 29.3883 28.6404C29.3883 29.597 29.9833 30.3938 30.764 30.5549L30.6356 33.5023H24.944C24.7907 33.5023 24.6664 33.6473 24.6664 33.8263C24.6664 34.0052 24.7907 34.1503 24.944 34.1503H30.6078L30.4524 37.7155L23.2777 37.7158C23.1243 37.7158 23 37.8608 23 38.0398C23 38.2187 23.1243 38.3638 23.2777 38.3638H30.424L30.2687 41.929L25.2222 41.9293C25.0689 41.9293 24.9445 42.0744 24.9445 42.2533C24.9445 42.4322 25.0689 42.5773 25.2222 42.5773H30.2407L30.0299 47.413C30.0035 48.0166 30.1857 48.5905 30.5425 49.0286C30.8994 49.4666 31.3812 49.7081 31.8993 49.7081H51.6974C52.5837 49.7081 53.3551 48.9726 53.5318 47.9592L56.5636 30.5663C57.3739 30.4351 58 29.6218 58 28.6406C58 27.5682 57.2524 26.6958 56.3333 26.6958L56.333 26.6958ZM44.0619 16.6483H46.2737L44.813 25.3926C44.4291 25.1895 44.0036 25.0755 43.5554 25.0755C43.2305 25.0755 42.9174 25.1354 42.6234 25.2457L44.0619 16.6483ZM43.5553 25.7237C44.9339 25.7237 46.0553 27.0322 46.0553 28.6407C46.0553 30.2493 44.9339 31.5578 43.5553 31.5578C42.1768 31.5578 41.0554 30.2493 41.0554 28.6407C41.0554 27.0322 42.1768 25.7237 43.5553 25.7237ZM29.9441 28.6407C29.9441 27.926 30.4426 27.3442 31.0552 27.3442H40.7097C40.5747 27.7463 40.4998 28.1834 40.4998 28.6407C40.4998 29.0981 40.5747 29.5352 40.7097 29.9373H31.0552C30.4426 29.9373 29.9441 29.3555 29.9441 28.6407V28.6407ZM52.987 47.8304C52.8627 48.5431 52.3202 49.0604 51.6971 49.0604L31.899 49.0602C31.5347 49.0602 31.1959 48.8904 30.9449 48.5824C30.694 48.2744 30.5658 47.8709 30.5844 47.4462L30.7966 42.5779H36.3329C36.4862 42.5779 36.6106 42.4328 36.6106 42.2538C36.6106 42.0749 36.4862 41.9298 36.3329 41.9298H30.8249L30.9803 38.3646L33.5552 38.3643C33.7086 38.3643 33.8329 38.2193 33.8329 38.0403C33.8329 37.8614 33.7086 37.7163 33.5552 37.7163H31.0085L31.1639 34.1511L32.9999 34.1508C33.1532 34.1508 33.2775 34.0058 33.2775 33.8268C33.2775 33.6479 33.1532 33.5028 32.9999 33.5028H31.1923L31.3195 30.5858L40.9962 30.5855C41.5421 31.5601 42.4849 32.2061 43.5552 32.2061C44.6254 32.2061 45.5682 31.5602 46.1141 30.5855H55.9931L52.987 47.8304ZM56.3329 29.9373H46.4008C46.5359 29.5352 46.6108 29.0982 46.6108 28.6408C46.6108 28.1835 46.5359 27.7464 46.4008 27.3443H56.3329C56.9455 27.3443 57.4441 27.926 57.4441 28.6408C57.4441 29.3556 56.9457 29.9373 56.3329 29.9373ZM43.5553 30.9096C44.6275 30.9096 45.4997 29.8917 45.4997 28.6408C45.4997 27.3897 44.6273 26.3721 43.5553 26.3721C42.4831 26.3721 41.6109 27.3899 41.6109 28.6408C41.6109 29.8919 42.4833 30.9096 43.5553 30.9096V30.9096ZM43.5553 27.0203C44.3211 27.0203 44.9441 27.7473 44.9441 28.6408C44.9441 29.5343 44.3211 30.2613 43.5553 30.2613C42.7895 30.2613 42.1665 29.5343 42.1665 28.6408C42.1665 27.7473 42.7895 27.0203 43.5553 27.0203Z" fill="#0CC029"/>
</svg>
