<svg width="71" height="71" viewBox="0 0 71 71" fill="none" xmlns="http://www.w3.org/2000/svg">
<rect width="71" height="71" rx="17" fill="#7000FF" fill-opacity="0.19"/>
<path d="M46.1828 23.6437H43.6068C43.2209 23.136 42.5679 22.7974 41.8211 22.7974H38.9031C38.6791 21.5523 37.4471 20.5969 35.9601 20.5969C34.4732 20.5969 33.2412 21.5524 33.0172 22.8029H30.0992C29.3524 22.8029 28.6994 23.1415 28.3135 23.6493H25.7375C24.2257 23.6493 23 24.7249 23 26.0516V52.8658C23 54.1925 24.2257 55.2681 25.7375 55.2681H46.1825C47.6943 55.2681 48.92 54.1925 48.92 52.8658V26.0516C48.92 24.7246 47.6943 23.6437 46.1825 23.6437H46.1828ZM28.4195 27.908H43.5011C43.7563 27.908 43.9677 27.7222 43.9677 27.4985V26.8161H45.7162V52.4565H26.204V26.8109H27.9525V27.4933C27.9525 27.7226 28.1639 27.9084 28.4191 27.9084L28.4195 27.908ZM30.0931 23.6219H33.4468C33.702 23.6219 33.9134 23.4362 33.9134 23.2124C33.9134 22.2241 34.8343 21.4162 35.9603 21.4162C37.0866 21.4162 38.0072 22.2243 38.0072 23.2124C38.0072 23.4364 38.2189 23.6219 38.4738 23.6219H41.8275C42.3067 23.6219 42.7235 23.873 42.9163 24.228V24.2335C42.9971 24.3808 43.0346 24.5339 43.0346 24.6867V27.089H28.8857V24.6812C28.8857 24.5283 28.9229 24.3755 29.004 24.228V24.2224C29.2031 23.873 29.6135 23.6219 30.0928 23.6219H30.0931ZM47.987 52.866C47.987 53.7395 47.1781 54.4493 46.1827 54.4493H25.7377C24.7424 54.4493 23.9335 53.7395 23.9335 52.866V26.0518C23.9335 25.1783 24.7424 24.4684 25.7377 24.4684H27.9714C27.9591 24.5393 27.9591 24.6105 27.9591 24.6869V25.9972H25.7441C25.4888 25.9972 25.2774 26.183 25.2774 26.4067V52.8664C25.2774 53.0903 25.4891 53.2758 25.7441 53.2758H46.189C46.4442 53.2758 46.6556 53.0901 46.6556 52.8664V26.4016C46.6556 26.1776 46.4439 25.9921 46.189 25.9921H43.9739V24.6817C43.9739 24.6108 43.9676 24.5344 43.9616 24.4633H46.1953C47.1907 24.4633 47.9996 25.1731 47.9996 26.0466V52.8666L47.987 52.866Z" fill="#B47AFF"/>
<path d="M35.9607 24.3589C36.6826 24.3589 37.2672 23.8456 37.2672 23.2124C37.2672 22.5789 36.6822 22.0659 35.9607 22.0659C35.2389 22.0659 34.6543 22.5792 34.6543 23.2124C34.6543 23.8456 35.2389 24.3589 35.9607 24.3589ZM35.9607 22.8846C36.1661 22.8846 36.334 23.0319 36.334 23.2121C36.334 23.3923 36.1661 23.5396 35.9607 23.5396C35.7554 23.5396 35.5875 23.3923 35.5875 23.2121C35.5875 23.0321 35.7554 22.8846 35.9607 22.8846Z" fill="#B47AFF"/>
<path d="M30.3037 47.5696H28.1072C27.852 47.5696 27.6406 47.7553 27.6406 47.9791V50.8728C27.6406 51.0968 27.8523 51.2823 28.1072 51.2823H30.3037C30.5589 51.2823 30.7703 51.0966 30.7703 50.8728V47.9791C30.7706 47.7498 30.5652 47.5696 30.3037 47.5696ZM29.8371 50.4634H28.5741V48.3886H29.8371V50.4634Z" fill="#B47AFF"/>
<path d="M34.8076 42.5845H32.6111C32.3559 42.5845 32.1445 42.7702 32.1445 42.994V50.873C32.1445 51.097 32.3562 51.2825 32.6111 51.2825H34.8076C35.0628 51.2825 35.2742 51.0967 35.2742 50.873V42.9946C35.2742 42.7706 35.0625 42.5849 34.8076 42.5849V42.5845ZM34.3407 50.4635H33.0777V43.4037H34.3407V50.4635Z" fill="#B47AFF"/>
<path d="M39.3076 44.5774H37.1111C36.8559 44.5774 36.6445 44.7632 36.6445 44.9869V50.8727C36.6445 51.0967 36.8562 51.2822 37.1111 51.2822H39.3076C39.5628 51.2822 39.7742 51.0964 39.7742 50.8727V44.9869C39.7742 44.7629 39.5688 44.5774 39.3076 44.5774ZM38.841 50.4632H37.578V45.3964H38.841V50.4632Z" fill="#B47AFF"/>
<path d="M43.8115 40.5916H41.6151C41.3598 40.5916 41.1484 40.7773 41.1484 41.001V50.873C41.1484 51.097 41.3601 51.2825 41.6151 51.2825H43.8115C44.0667 51.2825 44.2781 51.0968 44.2781 50.873V41.001C44.2781 40.7773 44.0667 40.5916 43.8115 40.5916ZM43.3449 50.4636H42.0819V41.4107H43.3449V50.4636Z" fill="#B47AFF"/>
<path d="M27.6406 32.0303C27.6406 32.2543 27.8523 32.4398 28.1072 32.4398H43.8114C44.0667 32.4398 44.2781 32.2541 44.2781 32.0303C44.2781 31.8064 44.0664 31.6208 43.8114 31.6208H28.1072C27.852 31.6208 27.6406 31.8011 27.6406 32.0303Z" fill="#B47AFF"/>
<path d="M43.8114 33.614H28.1072C27.852 33.614 27.6406 33.7998 27.6406 34.0235C27.6406 34.2475 27.8523 34.433 28.1072 34.433H43.8114C44.0667 34.433 44.2781 34.2472 44.2781 34.0235C44.2781 33.7995 44.0667 33.614 43.8114 33.614Z" fill="#B47AFF"/>
<path d="M43.8114 35.6069H28.1072C27.852 35.6069 27.6406 35.7927 27.6406 36.0164C27.6406 36.2404 27.8523 36.4259 28.1072 36.4259H43.8114C44.0667 36.4259 44.2781 36.2401 44.2781 36.0164C44.2781 35.7924 44.0667 35.6069 43.8114 35.6069Z" fill="#B47AFF"/>
<path d="M35.9593 37.5991H28.1072C27.852 37.5991 27.6406 37.7849 27.6406 38.0086C27.6406 38.2326 27.8523 38.4181 28.1072 38.4181H35.9593C36.2146 38.4181 36.426 38.2323 36.426 38.0086C36.426 37.7849 36.2146 37.5991 35.9593 37.5991Z" fill="#B47AFF"/>
</svg>
