<svg width="22" height="18" viewBox="0 0 22 18" fill="none" xmlns="http://www.w3.org/2000/svg">
<g clip-path="url(#clip0_763_343)">
<path d="M10.8411 0C7.89906 0 7.52911 0.01125 6.37319 0.054C5.21726 0.099 4.42993 0.24975 3.74016 0.4725C3.01665 0.698421 2.36131 1.0528 1.81994 1.51088C1.26851 1.96053 0.841682 2.50452 0.569155 3.105C0.300839 3.6765 0.117896 4.33125 0.0650463 5.2875C0.0135513 6.24937 0 6.55538 0 9.00113C0 11.4446 0.0135513 11.7506 0.0650463 12.7103C0.119252 13.6688 0.300839 14.3224 0.569155 14.895C0.846957 15.4867 1.21691 15.9885 1.81994 16.4891C2.42162 16.9897 3.02601 17.298 3.73881 17.5275C4.42993 17.7502 5.2159 17.9021 6.37048 17.946C7.52776 17.9888 7.89635 18 10.8411 18C13.7858 18 14.153 17.9888 15.3103 17.946C16.4635 17.901 17.2535 17.7502 17.9433 17.5275C18.6663 17.3015 19.3212 16.9471 19.8622 16.4891C20.4652 15.9885 20.8352 15.4867 21.113 14.895C21.3799 14.3224 21.5629 13.6688 21.6171 12.7103C21.6686 11.7506 21.6821 11.4446 21.6821 9C21.6821 6.55538 21.6686 6.24938 21.6171 5.28863C21.5629 4.33125 21.3799 3.6765 21.113 3.105C20.8405 2.5045 20.4136 1.96051 19.8622 1.51088C19.321 1.05264 18.6656 0.698226 17.9419 0.4725C17.2508 0.24975 16.4621 0.097875 15.3089 0.054C14.1516 0.01125 13.7844 0 10.8383 0H10.8424H10.8411ZM9.86943 1.62225H10.8424C13.737 1.62225 14.0798 1.63013 15.2222 1.674C16.2792 1.71338 16.8538 1.86075 17.2359 1.98338C17.7414 2.1465 18.1032 2.34225 18.4826 2.65725C18.8621 2.97225 19.0965 3.2715 19.293 3.69225C19.4421 4.00838 19.6182 4.48538 19.6657 5.36287C19.7185 6.31125 19.7294 6.59588 19.7294 8.99775C19.7294 11.3996 19.7185 11.6854 19.6657 12.6337C19.6182 13.5112 19.4407 13.9871 19.293 14.3044C19.1192 14.6952 18.8418 15.0485 18.4813 15.3383C18.1019 15.6532 17.7414 15.8479 17.2346 16.011C16.8551 16.1348 16.2806 16.281 15.2222 16.3215C14.0798 16.3643 13.737 16.3744 10.8424 16.3744C7.94785 16.3744 7.60364 16.3643 6.46127 16.3215C5.40427 16.281 4.83105 16.1348 4.4489 16.011C3.97799 15.8669 3.55197 15.637 3.20218 15.3383C2.84137 15.048 2.56353 14.6944 2.3891 14.3032C2.24139 13.9871 2.06387 13.5101 2.01644 12.6326C1.96494 11.6842 1.9541 11.3996 1.9541 8.9955C1.9541 6.5925 1.96494 6.309 2.01644 5.36062C2.06522 4.48312 2.24139 4.00612 2.39045 3.68887C2.58695 3.26925 2.82274 2.96887 3.20218 2.65387C3.58161 2.33888 3.94208 2.14425 4.4489 1.98112C4.83105 1.85738 5.40427 1.71113 6.46127 1.67062C7.46136 1.63238 7.84892 1.62113 9.86943 1.62V1.62225ZM16.6288 3.11625C16.458 3.11625 16.2888 3.14419 16.131 3.19846C15.9731 3.25274 15.8297 3.33229 15.7089 3.43257C15.5881 3.53286 15.4923 3.65192 15.4269 3.78295C15.3615 3.91398 15.3279 4.05442 15.3279 4.19625C15.3279 4.33808 15.3615 4.47852 15.4269 4.60955C15.4923 4.74058 15.5881 4.85964 15.7089 4.95993C15.8297 5.06021 15.9731 5.13976 16.131 5.19404C16.2888 5.24831 16.458 5.27625 16.6288 5.27625C16.9739 5.27625 17.3047 5.16246 17.5487 4.95993C17.7927 4.75739 17.9298 4.48268 17.9298 4.19625C17.9298 3.90982 17.7927 3.63511 17.5487 3.43257C17.3047 3.23004 16.9739 3.11625 16.6288 3.11625ZM10.8424 4.3785C10.104 4.36894 9.37059 4.48142 8.68501 4.70941C7.99943 4.9374 7.37533 5.27633 6.84904 5.70648C6.32276 6.13662 5.9048 6.64939 5.61952 7.21492C5.33423 7.78045 5.18731 8.38744 5.18731 9.00056C5.18731 9.61368 5.33423 10.2207 5.61952 10.7862C5.9048 11.3517 6.32276 11.8645 6.84904 12.2946C7.37533 12.7248 7.99943 13.0637 8.68501 13.2917C9.37059 13.5197 10.104 13.6322 10.8424 13.6226C12.304 13.6037 13.698 13.1084 14.7235 12.2437C15.749 11.3789 16.3238 10.2141 16.3238 9.00056C16.3238 7.78706 15.749 6.62221 14.7235 5.75747C13.698 4.89272 12.304 4.39743 10.8424 4.3785ZM10.8424 5.99963C11.8009 5.99963 12.7202 6.31573 13.398 6.87841C14.0758 7.44109 14.4565 8.20425 14.4565 9C14.4565 9.79575 14.0758 10.5589 13.398 11.1216C12.7202 11.6843 11.8009 12.0004 10.8424 12.0004C9.88388 12.0004 8.96461 11.6843 8.28683 11.1216C7.60905 10.5589 7.22827 9.79575 7.22827 9C7.22827 8.20425 7.60905 7.44109 8.28683 6.87841C8.96461 6.31573 9.88388 5.99963 10.8424 5.99963Z" fill="white"/>
</g>
<defs>
<clipPath id="clip0_763_343">
<rect width="21.6821" height="18" fill="white"/>
</clipPath>
</defs>
</svg>
