<svg width="113" height="30" viewBox="0 0 113 30" fill="none" xmlns="http://www.w3.org/2000/svg">
<path d="M4.66 19.36H9.14V22H1.24V7.96H4.66V19.36ZM9.69125 16.4C9.69125 15.2533 9.90458 14.2467 10.3313 13.38C10.7713 12.5133 11.3646 11.8467 12.1113 11.38C12.8579 10.9133 13.6913 10.68 14.6113 10.68C15.3979 10.68 16.0846 10.84 16.6713 11.16C17.2713 11.48 17.7313 11.9 18.0513 12.42V10.84H21.4713V22H18.0513V20.42C17.7179 20.94 17.2513 21.36 16.6513 21.68C16.0646 22 15.3779 22.16 14.5913 22.16C13.6846 22.16 12.8579 21.9267 12.1113 21.46C11.3646 20.98 10.7713 20.3067 10.3313 19.44C9.90458 18.56 9.69125 17.5467 9.69125 16.4ZM18.0513 16.42C18.0513 15.5667 17.8113 14.8933 17.3313 14.4C16.8646 13.9067 16.2913 13.66 15.6113 13.66C14.9313 13.66 14.3513 13.9067 13.8713 14.4C13.4046 14.88 13.1713 15.5467 13.1713 16.4C13.1713 17.2533 13.4046 17.9333 13.8713 18.44C14.3513 18.9333 14.9313 19.18 15.6113 19.18C16.2913 19.18 16.8646 18.9333 17.3313 18.44C17.8113 17.9467 18.0513 17.2733 18.0513 16.42ZM37.7855 10.72C39.1721 10.72 40.2721 11.14 41.0855 11.98C41.9121 12.82 42.3255 13.9867 42.3255 15.48V22H38.9255V15.94C38.9255 15.22 38.7321 14.6667 38.3455 14.28C37.9721 13.88 37.4521 13.68 36.7855 13.68C36.1188 13.68 35.5921 13.88 35.2055 14.28C34.8321 14.6667 34.6455 15.22 34.6455 15.94V22H31.2455V15.94C31.2455 15.22 31.0521 14.6667 30.6655 14.28C30.2921 13.88 29.7721 13.68 29.1055 13.68C28.4388 13.68 27.9121 13.88 27.5255 14.28C27.1521 14.6667 26.9655 15.22 26.9655 15.94V22H23.5455V10.84H26.9655V12.24C27.3121 11.7733 27.7655 11.4067 28.3255 11.14C28.8855 10.86 29.5188 10.72 30.2255 10.72C31.0655 10.72 31.8121 10.9 32.4655 11.26C33.1321 11.62 33.6521 12.1333 34.0255 12.8C34.4121 12.1867 34.9388 11.6867 35.6055 11.3C36.2721 10.9133 36.9988 10.72 37.7855 10.72ZM47.7373 12.42C48.0707 11.9 48.5307 11.48 49.1173 11.16C49.704 10.84 50.3907 10.68 51.1773 10.68C52.0973 10.68 52.9307 10.9133 53.6773 11.38C54.424 11.8467 55.0107 12.5133 55.4373 13.38C55.8773 14.2467 56.0973 15.2533 56.0973 16.4C56.0973 17.5467 55.8773 18.56 55.4373 19.44C55.0107 20.3067 54.424 20.98 53.6773 21.46C52.9307 21.9267 52.0973 22.16 51.1773 22.16C50.404 22.16 49.7173 22 49.1173 21.68C48.5307 21.36 48.0707 20.9467 47.7373 20.44V27.32H44.3173V10.84H47.7373V12.42ZM52.6173 16.4C52.6173 15.5467 52.3773 14.88 51.8973 14.4C51.4307 13.9067 50.8507 13.66 50.1573 13.66C49.4773 13.66 48.8973 13.9067 48.4173 14.4C47.9507 14.8933 47.7173 15.5667 47.7173 16.42C47.7173 17.2733 47.9507 17.9467 48.4173 18.44C48.8973 18.9333 49.4773 19.18 50.1573 19.18C50.8373 19.18 51.4173 18.9333 51.8973 18.44C52.3773 17.9333 52.6173 17.2533 52.6173 16.4ZM64.2916 10.72C65.5982 10.72 66.6382 11.1467 67.4116 12C68.1982 12.84 68.5916 14 68.5916 15.48V22H65.1916V15.94C65.1916 15.1933 64.9982 14.6133 64.6116 14.2C64.2249 13.7867 63.7049 13.58 63.0516 13.58C62.3982 13.58 61.8782 13.7867 61.4916 14.2C61.1049 14.6133 60.9116 15.1933 60.9116 15.94V22H57.4916V10.84H60.9116V12.32C61.2582 11.8267 61.7249 11.44 62.3116 11.16C62.8982 10.8667 63.5582 10.72 64.2916 10.72ZM81.0881 16.24C81.0881 16.56 81.0681 16.8933 81.0281 17.24H73.2881C73.3415 17.9333 73.5615 18.4667 73.9481 18.84C74.3481 19.2 74.8348 19.38 75.4081 19.38C76.2615 19.38 76.8548 19.02 77.1881 18.3H80.8281C80.6415 19.0333 80.3015 19.6933 79.8081 20.28C79.3281 20.8667 78.7215 21.3267 77.9881 21.66C77.2548 21.9933 76.4348 22.16 75.5281 22.16C74.4348 22.16 73.4615 21.9267 72.6081 21.46C71.7548 20.9933 71.0881 20.3267 70.6081 19.46C70.1281 18.5933 69.8881 17.58 69.8881 16.42C69.8881 15.26 70.1215 14.2467 70.5881 13.38C71.0681 12.5133 71.7348 11.8467 72.5881 11.38C73.4415 10.9133 74.4215 10.68 75.5281 10.68C76.6081 10.68 77.5681 10.9067 78.4081 11.36C79.2481 11.8133 79.9015 12.46 80.3681 13.3C80.8481 14.14 81.0881 15.12 81.0881 16.24ZM77.5881 15.34C77.5881 14.7533 77.3881 14.2867 76.9881 13.94C76.5881 13.5933 76.0881 13.42 75.4881 13.42C74.9148 13.42 74.4281 13.5867 74.0281 13.92C73.6415 14.2533 73.4015 14.7267 73.3081 15.34H77.5881ZM88.7123 19.1V22H86.9723C85.7323 22 84.7657 21.7 84.0723 21.1C83.379 20.4867 83.0323 19.4933 83.0323 18.12V13.68H81.6723V10.84H83.0323V8.12H86.4523V10.84H88.6923V13.68H86.4523V18.16C86.4523 18.4933 86.5323 18.7333 86.6923 18.88C86.8523 19.0267 87.119 19.1 87.4923 19.1H88.7123Z" fill="#BE0B0B"/>
</svg>
