<svg width="25" height="19" viewBox="0 0 25 19" fill="none" xmlns="http://www.w3.org/2000/svg">
<path d="M5.07378 5.69773C6.30432 5.69773 7.30186 4.92221 7.30186 3.96557C7.30186 3.00892 6.30432 2.2334 5.07378 2.2334C3.84325 2.2334 2.8457 3.00892 2.8457 3.96557C2.8457 4.92221 3.84325 5.69773 5.07378 5.69773Z" fill="white"/>
<path d="M9.40685 7.0102V16.6202H13.2449V11.8679C13.2449 10.6139 13.5483 9.39945 15.5483 9.39945C17.5208 9.39945 17.5452 10.8332 17.5452 11.947V16.621H21.3853V11.3509C21.3853 8.76216 20.6684 6.77271 16.7764 6.77271C14.9078 6.77271 13.6553 7.56991 13.1431 8.32437H13.0911V7.0102H9.40685ZM3.15234 7.0102H6.99649V16.6202H3.15234V7.0102Z" fill="white"/>
</svg>
