<svg width="29" height="24" viewBox="0 0 29 24" fill="none" xmlns="http://www.w3.org/2000/svg">
<path d="M14.455 17L15.6595 15V9.858C17.7326 9.411 19.2732 7.858 19.2732 6C19.2732 3.794 17.1122 2 14.455 2C11.7977 2 9.63672 3.794 9.63672 6C9.63672 7.858 11.1774 9.411 13.2504 9.858V15L14.455 17ZM12.0458 6C12.0458 4.897 13.1263 4 14.455 4C15.7836 4 16.8641 4.897 16.8641 6C16.8641 7.103 15.7836 8 14.455 8C13.1263 8 12.0458 7.103 12.0458 6Z" fill="white"/>
<path d="M19.5937 10.563L18.9517 12.491C22.0727 13.207 24.0903 14.584 24.0903 16C24.0903 17.892 20.1333 20 14.4538 20C8.77431 20 4.81733 17.892 4.81733 16C4.81733 14.584 6.83497 13.207 9.95719 12.49L9.31516 10.562C5.05463 11.54 2.4082 13.623 2.4082 16C2.4082 19.364 7.69984 22 14.4538 22C21.2078 22 26.4994 19.364 26.4994 16C26.4994 13.623 23.853 11.54 19.5937 10.563Z" fill="white"/>
</svg>
