<svg width="71" height="71" viewBox="0 0 71 71" fill="none" xmlns="http://www.w3.org/2000/svg">
<rect width="71" height="71" rx="17" fill="#FFD600" fill-opacity="0.16"/>
<path d="M29.9852 28.4424C29.6978 28.1145 30.1349 27.6157 30.4223 27.9438L33.0406 30.9303L35.6589 27.9438C35.9463 27.616 36.3836 28.1145 36.096 28.4424L33.4777 31.4288L36.096 34.4153C36.3834 34.7432 35.9463 35.242 35.6589 34.9139L33.0406 31.9274L30.4223 34.9139C30.1349 35.2417 29.6975 34.7432 29.9852 34.4153L32.6035 31.4288L29.9852 28.4424ZM49.756 27.2888C49.434 27.5693 49.0597 27.0101 49.3817 26.7296L51.5937 24.8075C52.0656 24.3975 51.8947 24.511 51.343 24.5134C48.211 24.5285 46.3536 25.3392 45.2649 26.7514C44.0435 28.3356 43.7547 30.7207 43.704 33.6047C43.6739 35.3166 43.7183 37.0157 43.7614 38.6618C43.9055 44.1678 44.0342 49.0904 41.3393 52.2772C37.3893 56.9489 29.5631 55.5545 27.8153 48.7179C26.5043 43.5889 29.2715 40.668 33.1999 38.9624C36.3335 37.6017 39.9562 35.4025 39.8313 30.9312C39.7004 26.2517 35.5601 23.0498 31.6365 24.6077C28.3602 25.9087 25.668 29.6918 24.4328 33.2825C24.285 33.7137 23.7102 33.4575 23.858 33.0262C25.1599 29.241 27.9837 25.3135 31.4333 23.9439C35.7495 22.2302 40.3026 25.7525 40.4469 30.9094C40.5819 35.7364 36.831 38.1397 33.4194 39.6207C29.8182 41.1846 27.1925 43.7723 28.4067 48.5222C30.0197 54.8323 37.2705 56.0754 40.8949 51.7895C43.4102 48.8145 43.2853 44.0312 43.1454 38.681C43.1021 37.0286 43.0577 35.3227 43.088 33.5909C43.1414 30.5547 43.4573 28.0286 44.801 26.2857C45.9708 24.7685 47.8936 23.8784 51.0606 23.8138C51.7644 23.7996 51.7123 23.8845 51.1516 23.3599L49.6249 21.9312C49.3122 21.638 49.7036 21.0954 50.0163 21.3884L52.6606 23.863C53.0727 24.2311 53.0398 24.4352 52.6311 24.7903L49.7558 27.2889L49.756 27.2888ZM25.393 35.9985C27.0765 37.9187 27.0765 41.0708 25.393 42.991C23.7095 44.9112 20.9461 44.9112 19.2626 42.991C17.5791 41.0708 17.5791 37.9187 19.2626 35.9985C20.9461 34.0783 23.7095 34.0783 25.393 35.9985ZM24.9559 36.4971C23.5125 34.8507 21.143 34.8507 19.6996 36.4971C18.2562 38.1435 18.2562 40.8461 19.6996 42.4925C21.143 44.1389 23.5125 44.1389 24.9559 42.4925C26.3993 40.8461 26.3993 38.1435 24.9559 36.4971ZM37.7469 43.3476C38.0343 43.0198 38.4716 43.5184 38.184 43.8462L35.5657 46.8327L38.184 49.8192C38.4714 50.147 38.0343 50.6458 37.7469 50.3177L35.1286 47.3312L32.5103 50.3177C32.2229 50.6456 31.7856 50.147 32.0732 49.8192L34.6915 46.8327L32.0732 43.8462C31.7858 43.5184 32.2229 43.0196 32.5103 43.3476L35.1286 46.3341L37.7469 43.3476ZM52.4688 43.1169C52.7563 42.789 53.1936 43.2876 52.9059 43.6154L50.2876 46.6019L52.9059 49.5884C53.1933 49.9162 52.7563 50.415 52.4688 50.087L49.8505 47.1005L47.2322 50.087C46.9448 50.4148 46.5075 49.9162 46.7952 49.5884L49.4135 46.6019L46.7952 43.6154C46.5077 43.2876 46.9448 42.7888 47.2322 43.1169L49.8505 46.1034L52.4688 43.1169ZM52.4649 32.1658C52.7523 31.838 53.1896 32.3366 52.9019 32.6644L50.2836 35.6509L52.9019 38.6374C53.1894 38.9652 52.7523 39.464 52.4649 39.1359L49.8466 36.1494L47.2283 39.1359C46.9409 39.4638 46.5035 38.9652 46.7912 38.6374L49.4095 35.6509L46.7912 32.6644C46.5038 32.3366 46.9409 31.8378 47.2283 32.1658L49.8466 35.1523L52.4649 32.1658Z" fill="#FFD600"/>
</svg>
