<svg width="71" height="71" viewBox="0 0 71 71" fill="none" xmlns="http://www.w3.org/2000/svg">
<rect width="71" height="71" rx="17" fill="#C00C0C" fill-opacity="0.58"/>
<path d="M35.5 42.875C37.9162 42.875 39.875 40.9162 39.875 38.5C39.875 36.0838 37.9162 34.125 35.5 34.125C33.0838 34.125 31.125 36.0838 31.125 38.5C31.125 40.9162 33.0838 42.875 35.5 42.875Z" stroke="#C00C0C" stroke-width="1.5" stroke-miterlimit="10" stroke-linecap="round" stroke-linejoin="round"/>
<path d="M20.916 39.7833V37.2166C20.916 35.6999 22.1556 34.4458 23.6868 34.4458C26.3264 34.4458 27.4056 32.5791 26.0785 30.2895C25.3202 28.977 25.7723 27.2708 27.0993 26.5124L29.6223 25.0687C30.7743 24.3833 32.2618 24.7916 32.9473 25.9437L33.1077 26.2208C34.4202 28.5103 36.5785 28.5103 37.9056 26.2208L38.066 25.9437C38.7514 24.7916 40.2389 24.3833 41.391 25.0687L43.9139 26.5124C45.241 27.2708 45.6931 28.977 44.9348 30.2895C43.6077 32.5791 44.6868 34.4458 47.3264 34.4458C48.8431 34.4458 50.0973 35.6853 50.0973 37.2166V39.7833C50.0973 41.2999 48.8577 42.5541 47.3264 42.5541C44.6868 42.5541 43.6077 44.4208 44.9348 46.7103C45.6931 48.0374 45.241 49.7291 43.9139 50.4874L41.391 51.9312C40.2389 52.6166 38.7514 52.2083 38.066 51.0562L37.9056 50.7791C36.5931 48.4895 34.4348 48.4895 33.1077 50.7791L32.9473 51.0562C32.2618 52.2083 30.7743 52.6166 29.6223 51.9312L27.0993 50.4874C25.7723 49.7291 25.3202 48.0228 26.0785 46.7103C27.4056 44.4208 26.3264 42.5541 23.6868 42.5541C22.1556 42.5541 20.916 41.2999 20.916 39.7833Z" stroke="#C00C0C" stroke-width="1.5" stroke-miterlimit="10" stroke-linecap="round" stroke-linejoin="round"/>
</svg>
